<mxfile host="app.diagrams.net" agent="Mozilla/5.0 (Windows NT 10.0; Win64; x64) AppleWebKit/537.36 (KHTML, like Gecko) Chrome/132.0.0.0 Safari/537.36 Edg/132.0.0.0" version="26.0.11" pages="3">
  <diagram id="lzxliIzYNsHJmeFatobw" name="Full">
    <mxGraphModel dx="2852" dy="1562" grid="1" gridSize="10" guides="1" tooltips="1" connect="1" arrows="1" fold="1" page="1" pageScale="1" pageWidth="1169" pageHeight="1654" math="0" shadow="0">
      <root>
        <mxCell id="0" />
        <mxCell id="1" parent="0" />
        <mxCell id="3CWk349kfWiu06-ZtrdI-1" value="&lt;p style=&quot;margin:0px;margin-top:6px;text-align:center;&quot;&gt;&lt;b&gt;Sondaggista&lt;/b&gt;&lt;/p&gt;&lt;hr size=&quot;1&quot; style=&quot;border-style:solid;&quot;&gt;&lt;p style=&quot;margin:0px;margin-left:8px;&quot;&gt;&lt;br&gt;&lt;/p&gt;" style="align=left;overflow=fill;html=1;dropTarget=0;whiteSpace=wrap;" vertex="1" parent="1">
          <mxGeometry x="82" y="90" width="470" height="530" as="geometry" />
        </mxCell>
        <mxCell id="3CWk349kfWiu06-ZtrdI-2" value="&lt;p style=&quot;margin:0px;margin-top:6px;text-align:center;&quot;&gt;&lt;b&gt;Amministratore&lt;/b&gt;&lt;/p&gt;&lt;hr size=&quot;1&quot; style=&quot;border-style:solid;&quot;&gt;&lt;p style=&quot;margin:0px;margin-left:8px;&quot;&gt;&lt;br&gt;&lt;/p&gt;" style="align=left;overflow=fill;html=1;dropTarget=0;whiteSpace=wrap;" vertex="1" parent="1">
          <mxGeometry x="552" y="90" width="270" height="530" as="geometry" />
        </mxCell>
        <mxCell id="3CWk349kfWiu06-ZtrdI-3" value="&lt;p style=&quot;margin:0px;margin-top:6px;text-align:center;&quot;&gt;&lt;b&gt;Database&lt;/b&gt;&lt;/p&gt;&lt;hr size=&quot;1&quot; style=&quot;border-style:solid;&quot;&gt;&lt;p style=&quot;margin:0px;margin-left:8px;&quot;&gt;&lt;br&gt;&lt;/p&gt;" style="align=left;overflow=fill;html=1;dropTarget=0;whiteSpace=wrap;" vertex="1" parent="1">
          <mxGeometry x="822" y="90" width="260" height="530" as="geometry" />
        </mxCell>
        <mxCell id="3CWk349kfWiu06-ZtrdI-4" style="edgeStyle=orthogonalEdgeStyle;rounded=0;orthogonalLoop=1;jettySize=auto;html=1;entryX=0.5;entryY=0;entryDx=0;entryDy=0;" edge="1" parent="1" source="3CWk349kfWiu06-ZtrdI-5" target="3CWk349kfWiu06-ZtrdI-14">
          <mxGeometry relative="1" as="geometry" />
        </mxCell>
        <mxCell id="3CWk349kfWiu06-ZtrdI-5" value="Aprire sondaggio" style="rounded=1;whiteSpace=wrap;html=1;" vertex="1" parent="1">
          <mxGeometry x="251" y="260" width="100" height="30" as="geometry" />
        </mxCell>
        <mxCell id="3CWk349kfWiu06-ZtrdI-6" style="edgeStyle=orthogonalEdgeStyle;rounded=0;orthogonalLoop=1;jettySize=auto;html=1;" edge="1" parent="1" source="3CWk349kfWiu06-ZtrdI-7" target="3CWk349kfWiu06-ZtrdI-5">
          <mxGeometry relative="1" as="geometry" />
        </mxCell>
        <mxCell id="3CWk349kfWiu06-ZtrdI-7" value="Creare sondaggio" style="rounded=1;whiteSpace=wrap;html=1;" vertex="1" parent="1">
          <mxGeometry x="251" y="180" width="100" height="30" as="geometry" />
        </mxCell>
        <mxCell id="3CWk349kfWiu06-ZtrdI-8" style="edgeStyle=orthogonalEdgeStyle;rounded=0;orthogonalLoop=1;jettySize=auto;html=1;entryX=0;entryY=0.5;entryDx=0;entryDy=0;" edge="1" parent="1" source="3CWk349kfWiu06-ZtrdI-10" target="3CWk349kfWiu06-ZtrdI-7">
          <mxGeometry relative="1" as="geometry">
            <Array as="points">
              <mxPoint x="136" y="195" />
            </Array>
          </mxGeometry>
        </mxCell>
        <mxCell id="3CWk349kfWiu06-ZtrdI-9" style="edgeStyle=orthogonalEdgeStyle;rounded=0;orthogonalLoop=1;jettySize=auto;html=1;" edge="1" parent="1" source="3CWk349kfWiu06-ZtrdI-10" target="3CWk349kfWiu06-ZtrdI-5">
          <mxGeometry relative="1" as="geometry">
            <Array as="points">
              <mxPoint x="136" y="275" />
            </Array>
          </mxGeometry>
        </mxCell>
        <mxCell id="3CWk349kfWiu06-ZtrdI-10" value="" style="rhombus;whiteSpace=wrap;html=1;" vertex="1" parent="1">
          <mxGeometry x="111" y="210" width="50" height="50" as="geometry" />
        </mxCell>
        <mxCell id="3CWk349kfWiu06-ZtrdI-11" style="edgeStyle=orthogonalEdgeStyle;rounded=0;orthogonalLoop=1;jettySize=auto;html=1;entryX=0;entryY=0.5;entryDx=0;entryDy=0;" edge="1" parent="1" source="3CWk349kfWiu06-ZtrdI-14" target="3CWk349kfWiu06-ZtrdI-16">
          <mxGeometry relative="1" as="geometry" />
        </mxCell>
        <mxCell id="3CWk349kfWiu06-ZtrdI-12" style="edgeStyle=orthogonalEdgeStyle;rounded=0;orthogonalLoop=1;jettySize=auto;html=1;entryX=0;entryY=0.5;entryDx=0;entryDy=0;" edge="1" parent="1" source="3CWk349kfWiu06-ZtrdI-14" target="3CWk349kfWiu06-ZtrdI-18">
          <mxGeometry relative="1" as="geometry">
            <Array as="points">
              <mxPoint x="301" y="465" />
            </Array>
          </mxGeometry>
        </mxCell>
        <mxCell id="3CWk349kfWiu06-ZtrdI-13" style="edgeStyle=orthogonalEdgeStyle;rounded=0;orthogonalLoop=1;jettySize=auto;html=1;entryX=0;entryY=0.5;entryDx=0;entryDy=0;" edge="1" parent="1" source="3CWk349kfWiu06-ZtrdI-14" target="3CWk349kfWiu06-ZtrdI-20">
          <mxGeometry relative="1" as="geometry">
            <Array as="points">
              <mxPoint x="261" y="375" />
              <mxPoint x="261" y="545" />
            </Array>
          </mxGeometry>
        </mxCell>
        <mxCell id="3CWk349kfWiu06-ZtrdI-14" value="" style="rhombus;whiteSpace=wrap;html=1;" vertex="1" parent="1">
          <mxGeometry x="276" y="350" width="50" height="50" as="geometry" />
        </mxCell>
        <mxCell id="3CWk349kfWiu06-ZtrdI-15" style="edgeStyle=orthogonalEdgeStyle;rounded=0;orthogonalLoop=1;jettySize=auto;html=1;entryX=0;entryY=0.5;entryDx=0;entryDy=0;" edge="1" parent="1" source="3CWk349kfWiu06-ZtrdI-16" target="3CWk349kfWiu06-ZtrdI-23">
          <mxGeometry relative="1" as="geometry" />
        </mxCell>
        <mxCell id="3CWk349kfWiu06-ZtrdI-16" value="Completare sondaggio" style="rounded=1;whiteSpace=wrap;html=1;" vertex="1" parent="1">
          <mxGeometry x="381" y="360" width="130" height="30" as="geometry" />
        </mxCell>
        <mxCell id="3CWk349kfWiu06-ZtrdI-17" style="edgeStyle=orthogonalEdgeStyle;rounded=0;orthogonalLoop=1;jettySize=auto;html=1;entryX=0;entryY=0.5;entryDx=0;entryDy=0;" edge="1" parent="1" source="3CWk349kfWiu06-ZtrdI-18" target="3CWk349kfWiu06-ZtrdI-27">
          <mxGeometry relative="1" as="geometry" />
        </mxCell>
        <mxCell id="3CWk349kfWiu06-ZtrdI-18" value="Cancellare sondaggio" style="rounded=1;whiteSpace=wrap;html=1;" vertex="1" parent="1">
          <mxGeometry x="381" y="450" width="120" height="30" as="geometry" />
        </mxCell>
        <mxCell id="3CWk349kfWiu06-ZtrdI-19" style="edgeStyle=orthogonalEdgeStyle;rounded=0;orthogonalLoop=1;jettySize=auto;html=1;" edge="1" parent="1" source="3CWk349kfWiu06-ZtrdI-20">
          <mxGeometry relative="1" as="geometry">
            <mxPoint x="1112" y="545" as="targetPoint" />
          </mxGeometry>
        </mxCell>
        <mxCell id="3CWk349kfWiu06-ZtrdI-20" value="Salvare sondaggio" style="rounded=1;whiteSpace=wrap;html=1;" vertex="1" parent="1">
          <mxGeometry x="386" y="530" width="110" height="30" as="geometry" />
        </mxCell>
        <mxCell id="3CWk349kfWiu06-ZtrdI-21" value="Sondaggio rifiutato" style="edgeStyle=orthogonalEdgeStyle;rounded=0;orthogonalLoop=1;jettySize=auto;html=1;" edge="1" parent="1" source="3CWk349kfWiu06-ZtrdI-23" target="3CWk349kfWiu06-ZtrdI-24">
          <mxGeometry x="-0.1429" y="54" relative="1" as="geometry">
            <mxPoint as="offset" />
          </mxGeometry>
        </mxCell>
        <mxCell id="3CWk349kfWiu06-ZtrdI-22" value="Sondaggio approvato" style="edgeStyle=orthogonalEdgeStyle;rounded=0;orthogonalLoop=1;jettySize=auto;html=1;" edge="1" parent="1" source="3CWk349kfWiu06-ZtrdI-23" target="3CWk349kfWiu06-ZtrdI-26">
          <mxGeometry y="15" relative="1" as="geometry">
            <mxPoint as="offset" />
          </mxGeometry>
        </mxCell>
        <mxCell id="3CWk349kfWiu06-ZtrdI-23" value="Valutare sondaggio" style="rounded=1;whiteSpace=wrap;html=1;" vertex="1" parent="1">
          <mxGeometry x="621" y="360" width="130" height="30" as="geometry" />
        </mxCell>
        <mxCell id="3CWk349kfWiu06-ZtrdI-24" value="Scrivere testo di motivazione" style="rounded=1;whiteSpace=wrap;html=1;" vertex="1" parent="1">
          <mxGeometry x="606" y="260" width="160" height="30" as="geometry" />
        </mxCell>
        <mxCell id="3CWk349kfWiu06-ZtrdI-25" style="edgeStyle=orthogonalEdgeStyle;rounded=0;orthogonalLoop=1;jettySize=auto;html=1;" edge="1" parent="1" source="3CWk349kfWiu06-ZtrdI-26">
          <mxGeometry relative="1" as="geometry">
            <mxPoint x="1127" y="530" as="targetPoint" />
          </mxGeometry>
        </mxCell>
        <mxCell id="3CWk349kfWiu06-ZtrdI-26" value="Modificare dati delle zone" style="rounded=1;whiteSpace=wrap;html=1;" vertex="1" parent="1">
          <mxGeometry x="901" y="360" width="150" height="30" as="geometry" />
        </mxCell>
        <mxCell id="3CWk349kfWiu06-ZtrdI-27" value="Canellare dati del sondaggio" style="rounded=1;whiteSpace=wrap;html=1;" vertex="1" parent="1">
          <mxGeometry x="901" y="450" width="160" height="30" as="geometry" />
        </mxCell>
        <mxCell id="3CWk349kfWiu06-ZtrdI-28" value="" style="shape=waypoint;sketch=0;fillStyle=solid;size=6;pointerEvents=1;points=[];fillColor=none;resizable=0;rotatable=0;perimeter=centerPerimeter;snapToPoint=1;strokeWidth=13;" vertex="1" parent="1">
          <mxGeometry x="1117" y="535" width="20" height="20" as="geometry" />
        </mxCell>
        <mxCell id="3CWk349kfWiu06-ZtrdI-29" style="edgeStyle=orthogonalEdgeStyle;rounded=0;orthogonalLoop=1;jettySize=auto;html=1;entryX=0;entryY=0.5;entryDx=0;entryDy=0;" edge="1" parent="1" source="3CWk349kfWiu06-ZtrdI-30" target="3CWk349kfWiu06-ZtrdI-10">
          <mxGeometry relative="1" as="geometry" />
        </mxCell>
        <mxCell id="3CWk349kfWiu06-ZtrdI-30" value="" style="shape=waypoint;sketch=0;fillStyle=solid;size=6;pointerEvents=1;points=[];fillColor=none;resizable=0;rotatable=0;perimeter=centerPerimeter;snapToPoint=1;strokeWidth=13;" vertex="1" parent="1">
          <mxGeometry x="32" y="225" width="20" height="20" as="geometry" />
        </mxCell>
        <mxCell id="3CWk349kfWiu06-ZtrdI-31" style="edgeStyle=orthogonalEdgeStyle;rounded=0;orthogonalLoop=1;jettySize=auto;html=1;" edge="1" parent="1" source="3CWk349kfWiu06-ZtrdI-27">
          <mxGeometry relative="1" as="geometry">
            <mxPoint x="1127" y="530" as="targetPoint" />
          </mxGeometry>
        </mxCell>
        <mxCell id="qZJRhVQx6YCA7KoZor1Y-1" value="&lt;p style=&quot;margin:0px;margin-top:6px;text-align:center;&quot;&gt;&lt;b&gt;Sondaggista&lt;/b&gt;&lt;/p&gt;&lt;hr size=&quot;1&quot; style=&quot;border-style:solid;&quot;&gt;&lt;p style=&quot;margin:0px;margin-left:8px;&quot;&gt;&lt;br&gt;&lt;/p&gt;" style="align=left;overflow=fill;html=1;dropTarget=0;whiteSpace=wrap;" vertex="1" parent="1">
          <mxGeometry x="185" y="750" width="560" height="250" as="geometry" />
        </mxCell>
        <mxCell id="qZJRhVQx6YCA7KoZor1Y-2" value="&lt;p style=&quot;margin:0px;margin-top:6px;text-align:center;&quot;&gt;&lt;b&gt;Cittadino&lt;/b&gt;&lt;/p&gt;&lt;hr size=&quot;1&quot; style=&quot;border-style:solid;&quot;&gt;&lt;p style=&quot;margin:0px;margin-left:8px;&quot;&gt;&lt;br&gt;&lt;/p&gt;" style="align=left;overflow=fill;html=1;dropTarget=0;whiteSpace=wrap;" vertex="1" parent="1">
          <mxGeometry x="745" y="750" width="230" height="250" as="geometry" />
        </mxCell>
        <mxCell id="qZJRhVQx6YCA7KoZor1Y-3" value="Cittadino acconsente ad inserire l&#39;età" style="edgeStyle=orthogonalEdgeStyle;rounded=0;orthogonalLoop=1;jettySize=auto;html=1;" edge="1" parent="1" source="qZJRhVQx6YCA7KoZor1Y-5" target="qZJRhVQx6YCA7KoZor1Y-7">
          <mxGeometry x="0.1111" y="104" relative="1" as="geometry">
            <mxPoint as="offset" />
          </mxGeometry>
        </mxCell>
        <mxCell id="qZJRhVQx6YCA7KoZor1Y-4" value="Cittadino non acconsente" style="edgeStyle=orthogonalEdgeStyle;rounded=0;orthogonalLoop=1;jettySize=auto;html=1;" edge="1" parent="1" source="qZJRhVQx6YCA7KoZor1Y-5" target="qZJRhVQx6YCA7KoZor1Y-11">
          <mxGeometry x="0.0588" y="15" relative="1" as="geometry">
            <mxPoint as="offset" />
          </mxGeometry>
        </mxCell>
        <mxCell id="qZJRhVQx6YCA7KoZor1Y-5" value="Inserire quartiere del cittadino" style="rounded=1;whiteSpace=wrap;html=1;" vertex="1" parent="1">
          <mxGeometry x="216" y="820" width="169" height="30" as="geometry" />
        </mxCell>
        <mxCell id="qZJRhVQx6YCA7KoZor1Y-6" style="edgeStyle=orthogonalEdgeStyle;rounded=0;orthogonalLoop=1;jettySize=auto;html=1;entryX=0.5;entryY=1;entryDx=0;entryDy=0;" edge="1" parent="1" source="qZJRhVQx6YCA7KoZor1Y-7" target="qZJRhVQx6YCA7KoZor1Y-11">
          <mxGeometry relative="1" as="geometry" />
        </mxCell>
        <mxCell id="qZJRhVQx6YCA7KoZor1Y-7" value="Inserire età del cittadino" style="rounded=1;whiteSpace=wrap;html=1;" vertex="1" parent="1">
          <mxGeometry x="231" y="940" width="139" height="30" as="geometry" />
        </mxCell>
        <mxCell id="qZJRhVQx6YCA7KoZor1Y-8" style="edgeStyle=orthogonalEdgeStyle;rounded=0;orthogonalLoop=1;jettySize=auto;html=1;entryX=0;entryY=0.5;entryDx=0;entryDy=0;exitX=0.643;exitY=1.04;exitDx=0;exitDy=0;exitPerimeter=0;" edge="1" parent="1" source="qZJRhVQx6YCA7KoZor1Y-9" target="qZJRhVQx6YCA7KoZor1Y-5">
          <mxGeometry relative="1" as="geometry" />
        </mxCell>
        <mxCell id="qZJRhVQx6YCA7KoZor1Y-9" value="" style="shape=waypoint;sketch=0;fillStyle=solid;size=6;pointerEvents=1;points=[];fillColor=none;resizable=0;rotatable=0;perimeter=centerPerimeter;snapToPoint=1;strokeWidth=13;" vertex="1" parent="1">
          <mxGeometry x="130" y="825" width="20" height="20" as="geometry" />
        </mxCell>
        <mxCell id="qZJRhVQx6YCA7KoZor1Y-10" style="edgeStyle=orthogonalEdgeStyle;rounded=0;orthogonalLoop=1;jettySize=auto;html=1;entryX=0;entryY=0.5;entryDx=0;entryDy=0;" edge="1" parent="1" source="qZJRhVQx6YCA7KoZor1Y-11" target="qZJRhVQx6YCA7KoZor1Y-13">
          <mxGeometry relative="1" as="geometry" />
        </mxCell>
        <mxCell id="qZJRhVQx6YCA7KoZor1Y-11" value="Passare dispositivo al cittadino" style="rounded=1;whiteSpace=wrap;html=1;" vertex="1" parent="1">
          <mxGeometry x="555" y="820" width="169" height="30" as="geometry" />
        </mxCell>
        <mxCell id="qZJRhVQx6YCA7KoZor1Y-12" style="edgeStyle=orthogonalEdgeStyle;rounded=0;orthogonalLoop=1;jettySize=auto;html=1;" edge="1" parent="1" source="qZJRhVQx6YCA7KoZor1Y-13" target="qZJRhVQx6YCA7KoZor1Y-15">
          <mxGeometry relative="1" as="geometry" />
        </mxCell>
        <mxCell id="qZJRhVQx6YCA7KoZor1Y-13" value="Inserire voto" style="rounded=1;whiteSpace=wrap;html=1;" vertex="1" parent="1">
          <mxGeometry x="820" y="820" width="80" height="30" as="geometry" />
        </mxCell>
        <mxCell id="qZJRhVQx6YCA7KoZor1Y-14" style="edgeStyle=orthogonalEdgeStyle;rounded=0;orthogonalLoop=1;jettySize=auto;html=1;" edge="1" parent="1" source="qZJRhVQx6YCA7KoZor1Y-15">
          <mxGeometry relative="1" as="geometry">
            <mxPoint x="1005" y="935" as="targetPoint" />
          </mxGeometry>
        </mxCell>
        <mxCell id="qZJRhVQx6YCA7KoZor1Y-15" value="Passare dispositivo al sondaggista" style="rounded=1;whiteSpace=wrap;html=1;" vertex="1" parent="1">
          <mxGeometry x="765" y="920" width="190" height="30" as="geometry" />
        </mxCell>
        <mxCell id="qZJRhVQx6YCA7KoZor1Y-16" value="" style="shape=waypoint;sketch=0;fillStyle=solid;size=6;pointerEvents=1;points=[];fillColor=none;resizable=0;rotatable=0;perimeter=centerPerimeter;snapToPoint=1;strokeWidth=13;" vertex="1" parent="1">
          <mxGeometry x="1010" y="925" width="20" height="20" as="geometry" />
        </mxCell>
      </root>
    </mxGraphModel>
  </diagram>
  <diagram name="RF9" id="LI2vDigwTBLL_vX1nj6T">
    <mxGraphModel dx="2852" dy="1562" grid="1" gridSize="10" guides="1" tooltips="1" connect="1" arrows="1" fold="1" page="1" pageScale="1" pageWidth="1169" pageHeight="1654" background="#ffffff" math="0" shadow="0">
      <root>
        <mxCell id="0" />
        <mxCell id="1" parent="0" />
        <mxCell id="1RYyjHeDq8wGcpf9o3gW-1" value="&lt;p style=&quot;margin:0px;margin-top:6px;text-align:center;&quot;&gt;&lt;b&gt;Sondaggista&lt;/b&gt;&lt;/p&gt;&lt;hr size=&quot;1&quot; style=&quot;border-style:solid;&quot;&gt;&lt;p style=&quot;margin:0px;margin-left:8px;&quot;&gt;&lt;br&gt;&lt;/p&gt;" style="align=left;overflow=fill;html=1;dropTarget=0;whiteSpace=wrap;" vertex="1" parent="1">
          <mxGeometry x="82" y="90" width="470" height="530" as="geometry" />
        </mxCell>
        <mxCell id="1RYyjHeDq8wGcpf9o3gW-3" value="&lt;p style=&quot;margin:0px;margin-top:6px;text-align:center;&quot;&gt;&lt;b&gt;Amministratore&lt;/b&gt;&lt;/p&gt;&lt;hr size=&quot;1&quot; style=&quot;border-style:solid;&quot;&gt;&lt;p style=&quot;margin:0px;margin-left:8px;&quot;&gt;&lt;br&gt;&lt;/p&gt;" style="align=left;overflow=fill;html=1;dropTarget=0;whiteSpace=wrap;" vertex="1" parent="1">
          <mxGeometry x="552" y="90" width="270" height="530" as="geometry" />
        </mxCell>
        <mxCell id="1RYyjHeDq8wGcpf9o3gW-4" value="&lt;p style=&quot;margin:0px;margin-top:6px;text-align:center;&quot;&gt;&lt;b&gt;Database&lt;/b&gt;&lt;/p&gt;&lt;hr size=&quot;1&quot; style=&quot;border-style:solid;&quot;&gt;&lt;p style=&quot;margin:0px;margin-left:8px;&quot;&gt;&lt;br&gt;&lt;/p&gt;" style="align=left;overflow=fill;html=1;dropTarget=0;whiteSpace=wrap;" vertex="1" parent="1">
          <mxGeometry x="822" y="90" width="260" height="530" as="geometry" />
        </mxCell>
        <mxCell id="1RYyjHeDq8wGcpf9o3gW-15" style="edgeStyle=orthogonalEdgeStyle;rounded=0;orthogonalLoop=1;jettySize=auto;html=1;entryX=0.5;entryY=0;entryDx=0;entryDy=0;" edge="1" parent="1" source="1RYyjHeDq8wGcpf9o3gW-6" target="1RYyjHeDq8wGcpf9o3gW-14">
          <mxGeometry relative="1" as="geometry" />
        </mxCell>
        <mxCell id="1RYyjHeDq8wGcpf9o3gW-6" value="Aprire sondaggio" style="rounded=1;whiteSpace=wrap;html=1;" vertex="1" parent="1">
          <mxGeometry x="251" y="260" width="100" height="30" as="geometry" />
        </mxCell>
        <mxCell id="1RYyjHeDq8wGcpf9o3gW-9" style="edgeStyle=orthogonalEdgeStyle;rounded=0;orthogonalLoop=1;jettySize=auto;html=1;" edge="1" parent="1" source="1RYyjHeDq8wGcpf9o3gW-8" target="1RYyjHeDq8wGcpf9o3gW-6">
          <mxGeometry relative="1" as="geometry" />
        </mxCell>
        <mxCell id="1RYyjHeDq8wGcpf9o3gW-8" value="Creare sondaggio" style="rounded=1;whiteSpace=wrap;html=1;" vertex="1" parent="1">
          <mxGeometry x="251" y="180" width="100" height="30" as="geometry" />
        </mxCell>
        <mxCell id="1RYyjHeDq8wGcpf9o3gW-11" style="edgeStyle=orthogonalEdgeStyle;rounded=0;orthogonalLoop=1;jettySize=auto;html=1;entryX=0;entryY=0.5;entryDx=0;entryDy=0;" edge="1" parent="1" source="1RYyjHeDq8wGcpf9o3gW-10" target="1RYyjHeDq8wGcpf9o3gW-8">
          <mxGeometry relative="1" as="geometry">
            <Array as="points">
              <mxPoint x="136" y="195" />
            </Array>
          </mxGeometry>
        </mxCell>
        <mxCell id="1RYyjHeDq8wGcpf9o3gW-12" style="edgeStyle=orthogonalEdgeStyle;rounded=0;orthogonalLoop=1;jettySize=auto;html=1;" edge="1" parent="1" source="1RYyjHeDq8wGcpf9o3gW-10" target="1RYyjHeDq8wGcpf9o3gW-6">
          <mxGeometry relative="1" as="geometry">
            <Array as="points">
              <mxPoint x="136" y="275" />
            </Array>
          </mxGeometry>
        </mxCell>
        <mxCell id="1RYyjHeDq8wGcpf9o3gW-10" value="" style="rhombus;whiteSpace=wrap;html=1;" vertex="1" parent="1">
          <mxGeometry x="111" y="210" width="50" height="50" as="geometry" />
        </mxCell>
        <mxCell id="1RYyjHeDq8wGcpf9o3gW-19" style="edgeStyle=orthogonalEdgeStyle;rounded=0;orthogonalLoop=1;jettySize=auto;html=1;entryX=0;entryY=0.5;entryDx=0;entryDy=0;" edge="1" parent="1" source="1RYyjHeDq8wGcpf9o3gW-14" target="1RYyjHeDq8wGcpf9o3gW-16">
          <mxGeometry relative="1" as="geometry" />
        </mxCell>
        <mxCell id="1RYyjHeDq8wGcpf9o3gW-20" style="edgeStyle=orthogonalEdgeStyle;rounded=0;orthogonalLoop=1;jettySize=auto;html=1;entryX=0;entryY=0.5;entryDx=0;entryDy=0;" edge="1" parent="1" source="1RYyjHeDq8wGcpf9o3gW-14" target="1RYyjHeDq8wGcpf9o3gW-17">
          <mxGeometry relative="1" as="geometry">
            <Array as="points">
              <mxPoint x="301" y="465" />
            </Array>
          </mxGeometry>
        </mxCell>
        <mxCell id="1RYyjHeDq8wGcpf9o3gW-21" style="edgeStyle=orthogonalEdgeStyle;rounded=0;orthogonalLoop=1;jettySize=auto;html=1;entryX=0;entryY=0.5;entryDx=0;entryDy=0;" edge="1" parent="1" source="1RYyjHeDq8wGcpf9o3gW-14" target="1RYyjHeDq8wGcpf9o3gW-18">
          <mxGeometry relative="1" as="geometry">
            <Array as="points">
              <mxPoint x="261" y="375" />
              <mxPoint x="261" y="545" />
            </Array>
          </mxGeometry>
        </mxCell>
        <mxCell id="1RYyjHeDq8wGcpf9o3gW-14" value="" style="rhombus;whiteSpace=wrap;html=1;" vertex="1" parent="1">
          <mxGeometry x="276" y="350" width="50" height="50" as="geometry" />
        </mxCell>
        <mxCell id="1RYyjHeDq8wGcpf9o3gW-23" style="edgeStyle=orthogonalEdgeStyle;rounded=0;orthogonalLoop=1;jettySize=auto;html=1;entryX=0;entryY=0.5;entryDx=0;entryDy=0;" edge="1" parent="1" source="1RYyjHeDq8wGcpf9o3gW-16" target="1RYyjHeDq8wGcpf9o3gW-22">
          <mxGeometry relative="1" as="geometry" />
        </mxCell>
        <mxCell id="1RYyjHeDq8wGcpf9o3gW-16" value="Completare sondaggio" style="rounded=1;whiteSpace=wrap;html=1;" vertex="1" parent="1">
          <mxGeometry x="381" y="360" width="130" height="30" as="geometry" />
        </mxCell>
        <mxCell id="1RYyjHeDq8wGcpf9o3gW-29" style="edgeStyle=orthogonalEdgeStyle;rounded=0;orthogonalLoop=1;jettySize=auto;html=1;entryX=0;entryY=0.5;entryDx=0;entryDy=0;" edge="1" parent="1" source="1RYyjHeDq8wGcpf9o3gW-17" target="1RYyjHeDq8wGcpf9o3gW-28">
          <mxGeometry relative="1" as="geometry" />
        </mxCell>
        <mxCell id="1RYyjHeDq8wGcpf9o3gW-17" value="Cancellare sondaggio" style="rounded=1;whiteSpace=wrap;html=1;" vertex="1" parent="1">
          <mxGeometry x="381" y="450" width="120" height="30" as="geometry" />
        </mxCell>
        <mxCell id="1RYyjHeDq8wGcpf9o3gW-33" style="edgeStyle=orthogonalEdgeStyle;rounded=0;orthogonalLoop=1;jettySize=auto;html=1;" edge="1" parent="1" source="1RYyjHeDq8wGcpf9o3gW-18">
          <mxGeometry relative="1" as="geometry">
            <mxPoint x="1112" y="545" as="targetPoint" />
          </mxGeometry>
        </mxCell>
        <mxCell id="1RYyjHeDq8wGcpf9o3gW-18" value="Salvare sondaggio" style="rounded=1;whiteSpace=wrap;html=1;" vertex="1" parent="1">
          <mxGeometry x="386" y="530" width="110" height="30" as="geometry" />
        </mxCell>
        <mxCell id="1RYyjHeDq8wGcpf9o3gW-25" value="Sondaggio rifiutato" style="edgeStyle=orthogonalEdgeStyle;rounded=0;orthogonalLoop=1;jettySize=auto;html=1;" edge="1" parent="1" source="1RYyjHeDq8wGcpf9o3gW-22" target="1RYyjHeDq8wGcpf9o3gW-24">
          <mxGeometry x="-0.1429" y="54" relative="1" as="geometry">
            <mxPoint as="offset" />
          </mxGeometry>
        </mxCell>
        <mxCell id="1RYyjHeDq8wGcpf9o3gW-27" value="Sondaggio approvato" style="edgeStyle=orthogonalEdgeStyle;rounded=0;orthogonalLoop=1;jettySize=auto;html=1;" edge="1" parent="1" source="1RYyjHeDq8wGcpf9o3gW-22" target="1RYyjHeDq8wGcpf9o3gW-26">
          <mxGeometry y="15" relative="1" as="geometry">
            <mxPoint as="offset" />
          </mxGeometry>
        </mxCell>
        <mxCell id="1RYyjHeDq8wGcpf9o3gW-22" value="Valutare sondaggio" style="rounded=1;whiteSpace=wrap;html=1;" vertex="1" parent="1">
          <mxGeometry x="621" y="360" width="130" height="30" as="geometry" />
        </mxCell>
        <mxCell id="1RYyjHeDq8wGcpf9o3gW-24" value="Scrivere testo di motivazione" style="rounded=1;whiteSpace=wrap;html=1;" vertex="1" parent="1">
          <mxGeometry x="606" y="260" width="160" height="30" as="geometry" />
        </mxCell>
        <mxCell id="1RYyjHeDq8wGcpf9o3gW-34" style="edgeStyle=orthogonalEdgeStyle;rounded=0;orthogonalLoop=1;jettySize=auto;html=1;" edge="1" parent="1" source="1RYyjHeDq8wGcpf9o3gW-26">
          <mxGeometry relative="1" as="geometry">
            <mxPoint x="1127" y="530" as="targetPoint" />
          </mxGeometry>
        </mxCell>
        <mxCell id="1RYyjHeDq8wGcpf9o3gW-26" value="Modificare dati delle zone" style="rounded=1;whiteSpace=wrap;html=1;" vertex="1" parent="1">
          <mxGeometry x="901" y="360" width="150" height="30" as="geometry" />
        </mxCell>
        <mxCell id="1RYyjHeDq8wGcpf9o3gW-28" value="Canellare dati del sondaggio" style="rounded=1;whiteSpace=wrap;html=1;" vertex="1" parent="1">
          <mxGeometry x="901" y="450" width="160" height="30" as="geometry" />
        </mxCell>
        <mxCell id="1RYyjHeDq8wGcpf9o3gW-30" value="" style="shape=waypoint;sketch=0;fillStyle=solid;size=6;pointerEvents=1;points=[];fillColor=none;resizable=0;rotatable=0;perimeter=centerPerimeter;snapToPoint=1;strokeWidth=13;" vertex="1" parent="1">
          <mxGeometry x="1117" y="535" width="20" height="20" as="geometry" />
        </mxCell>
        <mxCell id="1RYyjHeDq8wGcpf9o3gW-35" style="edgeStyle=orthogonalEdgeStyle;rounded=0;orthogonalLoop=1;jettySize=auto;html=1;entryX=0;entryY=0.5;entryDx=0;entryDy=0;" edge="1" parent="1" source="1RYyjHeDq8wGcpf9o3gW-31" target="1RYyjHeDq8wGcpf9o3gW-10">
          <mxGeometry relative="1" as="geometry" />
        </mxCell>
        <mxCell id="1RYyjHeDq8wGcpf9o3gW-31" value="" style="shape=waypoint;sketch=0;fillStyle=solid;size=6;pointerEvents=1;points=[];fillColor=none;resizable=0;rotatable=0;perimeter=centerPerimeter;snapToPoint=1;strokeWidth=13;" vertex="1" parent="1">
          <mxGeometry x="32" y="225" width="20" height="20" as="geometry" />
        </mxCell>
        <mxCell id="1RYyjHeDq8wGcpf9o3gW-32" style="edgeStyle=orthogonalEdgeStyle;rounded=0;orthogonalLoop=1;jettySize=auto;html=1;" edge="1" parent="1" source="1RYyjHeDq8wGcpf9o3gW-28">
          <mxGeometry relative="1" as="geometry">
            <mxPoint x="1127" y="530" as="targetPoint" />
          </mxGeometry>
        </mxCell>
      </root>
    </mxGraphModel>
  </diagram>
  <diagram id="SzYGr3IH5ik4OGQH0Zbe" name="RF11">
    <mxGraphModel dx="1501" dy="822" grid="1" gridSize="10" guides="1" tooltips="1" connect="1" arrows="1" fold="1" page="1" pageScale="1" pageWidth="1169" pageHeight="1654" background="#ffffff" math="0" shadow="0">
      <root>
        <mxCell id="0" />
        <mxCell id="1" parent="0" />
        <mxCell id="YNIwzZS5UfAbeho21JEB-1" value="&lt;p style=&quot;margin:0px;margin-top:6px;text-align:center;&quot;&gt;&lt;b&gt;Sondaggista&lt;/b&gt;&lt;/p&gt;&lt;hr size=&quot;1&quot; style=&quot;border-style:solid;&quot;&gt;&lt;p style=&quot;margin:0px;margin-left:8px;&quot;&gt;&lt;br&gt;&lt;/p&gt;" style="align=left;overflow=fill;html=1;dropTarget=0;whiteSpace=wrap;" vertex="1" parent="1">
          <mxGeometry x="220" y="300" width="560" height="250" as="geometry" />
        </mxCell>
        <mxCell id="YNIwzZS5UfAbeho21JEB-2" value="&lt;p style=&quot;margin:0px;margin-top:6px;text-align:center;&quot;&gt;&lt;b&gt;Cittadino&lt;/b&gt;&lt;/p&gt;&lt;hr size=&quot;1&quot; style=&quot;border-style:solid;&quot;&gt;&lt;p style=&quot;margin:0px;margin-left:8px;&quot;&gt;&lt;br&gt;&lt;/p&gt;" style="align=left;overflow=fill;html=1;dropTarget=0;whiteSpace=wrap;" vertex="1" parent="1">
          <mxGeometry x="780" y="300" width="230" height="250" as="geometry" />
        </mxCell>
        <mxCell id="mBYAmzhoC19jT0ftchu7-3" value="Cittadino acconsente ad inserire l&#39;età" style="edgeStyle=orthogonalEdgeStyle;rounded=0;orthogonalLoop=1;jettySize=auto;html=1;" edge="1" parent="1" source="lSIER1MN6O2eSc_Ry0BF-1" target="HziD12bxBdSMSGtOuGVl-2">
          <mxGeometry x="0.1111" y="104" relative="1" as="geometry">
            <mxPoint as="offset" />
          </mxGeometry>
        </mxCell>
        <mxCell id="mBYAmzhoC19jT0ftchu7-6" value="Cittadino non acconsente" style="edgeStyle=orthogonalEdgeStyle;rounded=0;orthogonalLoop=1;jettySize=auto;html=1;" edge="1" parent="1" source="lSIER1MN6O2eSc_Ry0BF-1" target="mBYAmzhoC19jT0ftchu7-5">
          <mxGeometry x="0.0588" y="15" relative="1" as="geometry">
            <mxPoint as="offset" />
          </mxGeometry>
        </mxCell>
        <mxCell id="lSIER1MN6O2eSc_Ry0BF-1" value="Inserire quartiere del cittadino" style="rounded=1;whiteSpace=wrap;html=1;" vertex="1" parent="1">
          <mxGeometry x="251" y="370" width="169" height="30" as="geometry" />
        </mxCell>
        <mxCell id="mBYAmzhoC19jT0ftchu7-7" style="edgeStyle=orthogonalEdgeStyle;rounded=0;orthogonalLoop=1;jettySize=auto;html=1;entryX=0.5;entryY=1;entryDx=0;entryDy=0;" edge="1" parent="1" source="HziD12bxBdSMSGtOuGVl-2" target="mBYAmzhoC19jT0ftchu7-5">
          <mxGeometry relative="1" as="geometry" />
        </mxCell>
        <mxCell id="HziD12bxBdSMSGtOuGVl-2" value="Inserire età del cittadino" style="rounded=1;whiteSpace=wrap;html=1;" vertex="1" parent="1">
          <mxGeometry x="266" y="490" width="139" height="30" as="geometry" />
        </mxCell>
        <mxCell id="mBYAmzhoC19jT0ftchu7-2" style="edgeStyle=orthogonalEdgeStyle;rounded=0;orthogonalLoop=1;jettySize=auto;html=1;entryX=0;entryY=0.5;entryDx=0;entryDy=0;exitX=0.643;exitY=1.04;exitDx=0;exitDy=0;exitPerimeter=0;" edge="1" parent="1" source="mBYAmzhoC19jT0ftchu7-1" target="lSIER1MN6O2eSc_Ry0BF-1">
          <mxGeometry relative="1" as="geometry" />
        </mxCell>
        <mxCell id="mBYAmzhoC19jT0ftchu7-1" value="" style="shape=waypoint;sketch=0;fillStyle=solid;size=6;pointerEvents=1;points=[];fillColor=none;resizable=0;rotatable=0;perimeter=centerPerimeter;snapToPoint=1;strokeWidth=13;" vertex="1" parent="1">
          <mxGeometry x="165" y="375" width="20" height="20" as="geometry" />
        </mxCell>
        <mxCell id="mBYAmzhoC19jT0ftchu7-10" style="edgeStyle=orthogonalEdgeStyle;rounded=0;orthogonalLoop=1;jettySize=auto;html=1;entryX=0;entryY=0.5;entryDx=0;entryDy=0;" edge="1" parent="1" source="mBYAmzhoC19jT0ftchu7-5" target="mBYAmzhoC19jT0ftchu7-8">
          <mxGeometry relative="1" as="geometry" />
        </mxCell>
        <mxCell id="mBYAmzhoC19jT0ftchu7-5" value="Passare dispositivo al cittadino" style="rounded=1;whiteSpace=wrap;html=1;" vertex="1" parent="1">
          <mxGeometry x="590" y="370" width="169" height="30" as="geometry" />
        </mxCell>
        <mxCell id="mBYAmzhoC19jT0ftchu7-11" style="edgeStyle=orthogonalEdgeStyle;rounded=0;orthogonalLoop=1;jettySize=auto;html=1;" edge="1" parent="1" source="mBYAmzhoC19jT0ftchu7-8" target="mBYAmzhoC19jT0ftchu7-9">
          <mxGeometry relative="1" as="geometry" />
        </mxCell>
        <mxCell id="mBYAmzhoC19jT0ftchu7-8" value="Inserire voto" style="rounded=1;whiteSpace=wrap;html=1;" vertex="1" parent="1">
          <mxGeometry x="855" y="370" width="80" height="30" as="geometry" />
        </mxCell>
        <mxCell id="mBYAmzhoC19jT0ftchu7-13" style="edgeStyle=orthogonalEdgeStyle;rounded=0;orthogonalLoop=1;jettySize=auto;html=1;" edge="1" parent="1" source="mBYAmzhoC19jT0ftchu7-9">
          <mxGeometry relative="1" as="geometry">
            <mxPoint x="1040" y="485" as="targetPoint" />
          </mxGeometry>
        </mxCell>
        <mxCell id="mBYAmzhoC19jT0ftchu7-9" value="Passare dispositivo al sondaggista" style="rounded=1;whiteSpace=wrap;html=1;" vertex="1" parent="1">
          <mxGeometry x="800" y="470" width="190" height="30" as="geometry" />
        </mxCell>
        <mxCell id="mBYAmzhoC19jT0ftchu7-12" value="" style="shape=waypoint;sketch=0;fillStyle=solid;size=6;pointerEvents=1;points=[];fillColor=none;resizable=0;rotatable=0;perimeter=centerPerimeter;snapToPoint=1;strokeWidth=13;" vertex="1" parent="1">
          <mxGeometry x="1045" y="475" width="20" height="20" as="geometry" />
        </mxCell>
      </root>
    </mxGraphModel>
  </diagram>
</mxfile>
